<?xml version="1.0" standalone="no"?>
<svg xmlns="http://www.w3.org/2000/svg" viewBox="0 0 44 72" width="44" height="72"><g fill="#ffffff" color="#ffffff" transform="translate(0 0) scale(0.88) "><svg width="50.0" height="50.0" x="0.0" y="0.0" viewBox="0 0 50 50"><path fill-rule="evenodd" clip-rule="evenodd" fill="currentColor" d="M21.605,23.13h6.832c1.446,0,2.646,1.198,2.646,2.644v7.98H29.73  v-6.635H28.34v6.635h-6.533v-6.635H20.36v6.635h-1.398v-7.98C18.962,24.328,20.163,23.13,21.605,23.13L21.605,23.13z M25.049,16.097  c1.691,0,3.142,1.396,3.142,3.144c0,1.746-1.451,3.141-3.142,3.141c-1.75,0-3.144-1.396-3.144-3.141  C21.906,17.493,23.299,16.097,25.049,16.097L25.049,16.097z M23.504,4.777h3.089c0.647,0,1.198,0.549,1.198,1.198v3.642h-0.649h-0.6  h-2.99H22.9h-0.592V5.975C22.309,5.326,22.804,4.777,23.504,4.777L23.504,4.777z M25.049,1.586c0.745,0,1.396,0.647,1.396,1.446  S25.794,4.43,25.049,4.43c-0.799,0-1.449-0.599-1.449-1.397S24.25,1.586,25.049,1.586L25.049,1.586z M35.621,7.723l2.543,1.843  c0.494,0.399,0.644,1.145,0.246,1.645l-2.092,2.943l-0.501-0.35l-0.549-0.398l-2.394-1.745l-0.499-0.347l-0.548-0.403l2.146-2.892  C34.373,7.472,35.121,7.371,35.621,7.723L35.621,7.723z M38.762,6.074c-0.646-0.499-1.497-0.348-1.998,0.3  c-0.445,0.649-0.298,1.545,0.35,1.993c0.603,0.45,1.497,0.3,1.945-0.299C39.557,7.422,39.408,6.523,38.762,6.074L38.762,6.074z   M43.749,17.246l0.997,2.944c0.195,0.645-0.152,1.293-0.797,1.545l-3.439,1.094l-0.152-0.599l-0.201-0.597l-0.948-2.791  l-0.202-0.601l-0.198-0.649l3.442-1.096C42.849,16.297,43.548,16.646,43.749,17.246L43.749,17.246z M47.287,17.744  c-0.25-0.747-1.043-1.148-1.797-0.899c-0.744,0.25-1.143,1.049-0.947,1.794c0.252,0.75,1.049,1.15,1.797,0.899  C47.086,19.291,47.537,18.491,47.287,17.744L47.287,17.744z M44.746,29.711l-0.95,2.992c-0.198,0.598-0.897,0.948-1.493,0.749  l-3.442-1.099l0.198-0.595l0.149-0.599l0.948-2.842l0.201-0.602l0.197-0.598l3.395,1.097C44.594,28.417,44.941,29.113,44.746,29.711  L44.746,29.711z M47.287,32.205c0.25-0.745-0.15-1.544-0.896-1.795c-0.753-0.249-1.544,0.15-1.798,0.898  c-0.246,0.747,0.152,1.543,0.896,1.793C46.244,33.354,47.037,32.955,47.287,32.205L47.287,32.205z M38.215,40.435l-2.495,1.792  c-0.55,0.401-1.299,0.305-1.692-0.248l-2.1-2.891l0.448-0.399l0.55-0.349l2.395-1.746l0.497-0.396l0.501-0.352l2.145,2.892  C38.86,39.286,38.762,40.037,38.215,40.435L38.215,40.435z M38.86,43.875c0.597-0.449,0.748-1.344,0.3-1.946  c-0.449-0.647-1.348-0.796-1.998-0.348c-0.646,0.499-0.796,1.396-0.297,1.995C37.316,44.225,38.215,44.375,38.86,43.875  L38.86,43.875z M26.643,45.221h-3.09c-0.652,0-1.199-0.498-1.199-1.195v-3.591h0.599H23.6h2.942h0.651l0.646-0.051v3.642  C27.839,44.672,27.293,45.221,26.643,45.221L26.643,45.221z M25.093,48.414c-0.748,0-1.395-0.65-1.395-1.398  c0-0.796,0.601-1.445,1.395-1.445c0.801,0,1.449,0.649,1.449,1.396C26.542,47.764,25.895,48.414,25.093,48.414L25.093,48.414z   M14.476,42.329l-2.493-1.794c-0.548-0.399-0.697-1.148-0.3-1.697l2.091-2.943l0.504,0.399l0.546,0.351l2.393,1.746l0.502,0.347  l0.544,0.399l-2.096,2.893C15.772,42.579,15.024,42.729,14.476,42.329L14.476,42.329z M11.383,44.025  c0.599,0.445,1.495,0.3,1.942-0.35c0.499-0.648,0.351-1.498-0.296-1.997c-0.651-0.446-1.547-0.296-1.996,0.351  C10.586,42.677,10.734,43.576,11.383,44.025L11.383,44.025z M6.293,32.852l-0.946-2.939c-0.196-0.648,0.152-1.297,0.75-1.545  l3.441-1.1l0.198,0.551l0.206,0.599l0.893,2.842l0.199,0.599l0.2,0.598l-3.392,1.146C7.194,33.803,6.546,33.452,6.293,32.852  L6.293,32.852z M2.804,32.354c0.25,0.748,1.052,1.148,1.797,0.9c0.746-0.201,1.144-1.049,0.897-1.794  c-0.248-0.749-1.044-1.149-1.793-0.899C2.958,30.809,2.556,31.607,2.804,32.354L2.804,32.354z M10.784,18.939l-0.895,2.796  l-0.2,0.598l-0.201,0.649l-3.445-1.098c-0.596-0.199-0.943-0.898-0.745-1.496l0,0l0.95-2.993c0.194-0.599,0.845-0.948,1.495-0.749  l3.439,1.098l-0.199,0.549 M2.709,17.942c-0.254,0.751,0.199,1.547,0.941,1.795c0.753,0.201,1.55-0.198,1.797-0.947  c0.202-0.748-0.197-1.544-0.945-1.793S2.958,17.195,2.709,17.942L2.709,17.942z M11.779,9.665l2.499-1.847  c0.495-0.396,1.245-0.248,1.645,0.25l2.146,2.892l-0.502,0.402l-0.501,0.346l-2.391,1.796l-0.5,0.35l-0.498,0.396l-2.146-2.889  C11.132,10.812,11.233,10.066,11.779,9.665L11.779,9.665z M11.132,6.174c-0.648,0.449-0.796,1.347-0.297,1.994  c0.451,0.648,1.348,0.75,1.993,0.301c0.598-0.451,0.75-1.347,0.298-1.996C12.629,5.823,11.731,5.726,11.132,6.174z"></path></svg></g><path fill="#ffffff" fill-rule="nonzero" d="M5.23 19.82L5.23 19.82Q3.17 19.82 2.03 18.96Q0.89 18.10 0.44 16.63Q0 15.17 0 13.37L0 13.37L0 6.50Q0 4.54 0.44 3.07Q0.89 1.61 2.03 0.80Q3.17 0 5.23 0L5.23 0Q7.06 0 8.12 0.67Q9.19 1.34 9.66 2.59Q10.13 3.84 10.13 5.59L10.13 5.59L10.13 7.13L7.56 7.13L7.56 5.76Q7.56 4.68 7.45 3.85Q7.34 3.02 6.86 2.57Q6.38 2.11 5.26 2.11L5.26 2.11Q4.10 2.11 3.58 2.60Q3.05 3.10 2.89 4.00Q2.74 4.90 2.74 6.10L2.74 6.10L2.74 13.80Q2.74 15.26 2.98 16.12Q3.22 16.97 3.77 17.33Q4.32 17.69 5.26 17.69L5.26 17.69Q6.36 17.69 6.84 17.20Q7.32 16.70 7.44 15.84Q7.56 14.98 7.56 13.82L7.56 13.82L7.56 12.38L10.13 12.38L10.13 13.82Q10.13 15.60 9.70 16.96Q9.26 18.31 8.21 19.07Q7.15 19.82 5.23 19.82ZM15.43 19.61L12.72 19.61L12.72 0.17L16.63 0.17Q18.58 0.17 19.85 0.68Q21.12 1.20 21.73 2.34Q22.34 3.48 22.34 5.33L22.34 5.33Q22.34 6.46 22.10 7.38Q21.86 8.30 21.34 8.94Q20.81 9.58 19.94 9.86L19.94 9.86L22.70 19.61L20.09 19.61L17.54 10.49L15.43 10.49L15.43 19.61ZM15.43 2.11L15.43 8.54L16.46 8.54Q17.62 8.54 18.34 8.26Q19.06 7.97 19.39 7.27Q19.73 6.58 19.73 5.33L19.73 5.33Q19.73 3.62 19.10 2.87Q18.48 2.11 16.63 2.11L16.63 2.11L15.43 2.11ZM27.34 19.61L25.13 19.61L25.49 0.17L28.15 0.17L31.58 15.94L35.04 0.17L37.68 0.17L38.04 19.61L35.86 19.61L35.64 5.50L32.35 19.61L30.82 19.61L27.55 5.50L27.34 19.61Z" transform="translate(2.981, 52)"></path></svg>